<svg viewBox="4166 445 145 145" xmlns="http://www.w3.org/2000/svg"><path d="m4166 445h145v145h-145z" fill="none"/><path d="m72.318 7.5a64.818 64.818 0 1 0 64.818 64.818 64.792 64.792 0 0 0 -64.818-64.818z" fill="#ffc731" stroke="#ffba00" stroke-width="5" transform="translate(4166.625 445.574)"/><path d="m176.628 18.944q-.26-1.3-2.081-1.951a120.384 120.384 0 0 1 -22.11-13.44c-3.6-2.9-5.9-3.858-7.63-3.208-.087.043-.13.043-.217.087a2.9 2.9 0 0 0 -1.518 2.168c-.217 1.777 1.214 3.945 4.639 6.98 4.422 3.772 12.486 7.5 24.061 11.055a9.881 9.881 0 0 0 2.645.52 2.059 2.059 0 0 0 2.211-1.777.735.735 0 0 0 0-.434z" transform="translate(4109.677 494.359)"/><path d="m28.917 9.38c3.425-3.035 4.812-5.2 4.639-6.98a2.793 2.793 0 0 0 -1.518-2.168c-.087-.043-.13-.087-.217-.087-1.734-.65-4.032.3-7.63 3.208a119.211 119.211 0 0 1 -22.023 13.44 2.905 2.905 0 0 0 -2.168 1.994v.477a2.059 2.059 0 0 0 2.211 1.777 9.343 9.343 0 0 0 2.6-.52c11.577-3.641 19.684-7.37 24.106-11.141z" transform="translate(4190.711 494.473)"/><path d="m105.069 118.258a29.573 29.573 0 0 0 -17.558 0 3.491 3.491 0 0 0 -1.517 1.127 3.022 3.022 0 0 0 -.694 2.081v.217c.26 2.211 1.777 3.121 4.292 2.428h.217a42.216 42.216 0 0 1 6.5-.78 33.733 33.733 0 0 1 6.546.78h.13c.043 0 .043 0 .087.043a5.109 5.109 0 0 0 1.517.217 2.629 2.629 0 0 0 2.775-2.645v-.217a3.338 3.338 0 0 0 -.694-2.081 3.863 3.863 0 0 0 -1.601-1.17z" transform="translate(4142.391 428.21)"/><path d="m44.4 62.256a1.339 1.339 0 0 0 -1.344-.564 3.3 3.3 0 0 0 -1.344.694c-8.8 8.584-17.775 8.974-26.836 1.214a6.145 6.145 0 0 0 -2.3-1.474.738.738 0 0 0 -.3-.043 1.6 1.6 0 0 0 -1.431.737c-.477.824-.087 2.124 1.257 4.292.043.043.043.087.087.173a17.384 17.384 0 0 0 10.318 7.023 22.608 22.608 0 0 0 5.116.607 18.632 18.632 0 0 0 11.966-3.9 14.793 14.793 0 0 0 4.511-5.464c.648-1.651.734-2.644.3-3.295z" transform="translate(4184.678 459.501)"/><path d="m160.192 62.134a.391.391 0 0 0 -.217.043 6.424 6.424 0 0 0 -2.254 1.431c-4.336 3.728-8.671 5.592-12.921 5.592-4.639 0-9.364-2.3-14.09-6.893a3.034 3.034 0 0 0 -1.387-.607 1.33 1.33 0 0 0 -1.171.607c-.434.65-.347 1.647.347 3.338a14.882 14.882 0 0 0 4.465 5.419 18.8 18.8 0 0 0 11.966 3.9 22.9 22.9 0 0 0 5.116-.607 17.608 17.608 0 0 0 10.275-7.023c.043-.043.043-.087.087-.13 1.344-2.168 1.734-3.468 1.257-4.292a1.459 1.459 0 0 0 -1.473-.778z" transform="translate(4118.266 459.494)"/></svg>