<svg width="366" height="110" xmlns="http://www.w3.org/2000/svg" preserveAspectRatio="none"><g fill="#C8102E" fill-rule="evenodd"><path d="M87.18 13.054c-.253.06-.506.115-.758.176-.147.015-.294.027-.441.043-.037.003-.071.003-.107.007a4.694 4.694 0 0 1-.398.027c-3.213.15-5.025-1.563-5.454-3.66-9.9.918-19.755 2.143-29.424 3.834-15.868 2.053-31.062 6.411-45.04 13.142-1.174.565-2 1.279-2.528 2.066-2.07 1.528-3.327 3.47-2.97 6.21.483 3.706 2.672 7.501 3.742 11.138a91.785 91.785 0 0 1 2.405 10.437c-.357 1.542-.904 3.067-1.85 4.46C5.97 62.447 6.868 64 7.32 65.638c.089 1.218.163 2.438.207 3.662.012.342.063.662.133.971-.265 3.697-1.377 7.89-1.106 12.932 5.273 5.108 8.683 12.465 13.02 18.691 2.865-2.383 5.901-1.853 6.167 3.02 6.347-1.784 12.116-3.843 17.739-5.857 2.642 3.119 7.213 5.089 12.909 3.766 36.124-8.391 74.524-10.003 111.805-11.982 38.687-2.055 77.455-2.85 116.218-2.482 15.397.146 14.386-19.614-.968-19.76-8.196-.078-16.392-.09-24.589-.063.515-.599 1.062-1.2 1.66-1.81 5.55-5.645 7.714-3.17 5.745-13.867-.075-.414-3.08-1.88-2.955-2.775.359-2.586 4.459-12.452 2.693-13.06-2.056-.702-2.475-2.635-1.769-4.136l.487-1.037c-.908-.06-1.862-.133-3.035-.238-2.007-.183-3.524-2.065-3.075-3.612.893-3.068-.526-5.47-2.251-7.67l.51.039c1.567.128 3.046-.307 4.276-1.065a753.834 753.834 0 0 1 48.169 5.797c4.016.614 8.163-.915 9.312-4.373.487-1.466.21-3.16-.652-4.594.333.069.666.133.998.203 7.661 1.612 11.758-6.024 7.994-10.03-79.5-10.283-161.317-7.964-239.782 6.747"/><path d="M241.467 79.305c.92-1.609.452-3.34-.72-4.633 2.211-6.423 3.904-13.162 4.459-20.437.182-2.392-2.03-4.295-2.018-6.262.196-26.916 1.77-4.511 2.772-12.434 1.35-10.677-2.718-20.38-2-30.214.096-1.315.32-2.782.627-4.33 20.06 2.381 39.844 6.198 59.234 11.46 3.868 1.05 6.619-1.132 7.13-3.604 15.295 3.643 30.446 7.78 45.406 12.469 1.427.756 2.853 1.506 4.267 2.33 1.314.764 1.736 2.605 1.592 4.354 1.264.574 2.522 1.198 3.784 1.762-.035.492.017.965-.035 1.465a56.567 56.567 0 0 0-2.88 3.03c-.474 1.376-1.99 3.336-2.641 5.011-2.552 6.574-2.49 13.036-.98 19.2-1.86.223-3.487 3.093-2.48 6.058 5.225 15.441 3.64 23.048-.92 37.357.264-.83-.51.726-1.788 3.591l.108.038a106.234 106.234 0 0 1-4.037 4.484c-3.22-.928-6.504-1.73-9.83-2.437-.044-1.704-1.184-3.386-3.778-4.122-32.251-9.158-65.793-14.452-100.013-15.855-.147-.006-.272.014-.413.016-.103-.09-.21-.178-.313-.268.515-2.192 1.777-4.309 3.851-6.225.753-.46 1.298-1.085 1.616-1.804"/></g></svg>